<svg width="76" height="24" viewBox="0 0 76 24" fill="none" xmlns="http://www.w3.org/2000/svg">
<path d="M0.719188 18V1.2H3.04719L13.3192 14.952L12.9352 15.168C12.8712 14.768 12.8152 14.336 12.7672 13.872C12.7192 13.392 12.6712 12.888 12.6232 12.36C12.5912 11.816 12.5592 11.248 12.5272 10.656C12.5112 10.048 12.4952 9.416 12.4792 8.76C12.4632 8.104 12.4552 7.424 12.4552 6.72V1.2H15.0472V18H12.6712L2.56719 4.752L2.83119 4.416C2.91119 5.392 2.97519 6.224 3.02319 6.912C3.08719 7.584 3.13519 8.16 3.16719 8.64C3.21519 9.104 3.24719 9.488 3.26319 9.792C3.27919 10.08 3.28719 10.32 3.28719 10.512C3.30319 10.704 3.31119 10.872 3.31119 11.016V18H0.719188ZM23.9744 18.24C22.9344 18.24 21.9824 17.952 21.1184 17.376C20.2704 16.8 19.5904 16.016 19.0784 15.024C18.5664 14.032 18.3104 12.912 18.3104 11.664C18.3104 10.4 18.5664 9.28 19.0784 8.304C19.6064 7.312 20.3104 6.536 21.1904 5.976C22.0864 5.416 23.0864 5.136 24.1904 5.136C24.8464 5.136 25.4464 5.232 25.9904 5.424C26.5344 5.616 27.0064 5.888 27.4064 6.24C27.8224 6.576 28.1584 6.968 28.4144 7.416C28.6864 7.864 28.8544 8.344 28.9184 8.856L28.3664 8.664V5.4H30.8624V18H28.3664V15L28.9424 14.832C28.8464 15.264 28.6464 15.688 28.3424 16.104C28.0544 16.504 27.6784 16.864 27.2144 17.184C26.7664 17.504 26.2624 17.76 25.7024 17.952C25.1584 18.144 24.5824 18.24 23.9744 18.24ZM24.6224 15.96C25.3744 15.96 26.0384 15.776 26.6144 15.408C27.1904 15.04 27.6384 14.536 27.9584 13.896C28.2944 13.24 28.4624 12.496 28.4624 11.664C28.4624 10.848 28.2944 10.12 27.9584 9.48C27.6384 8.84 27.1904 8.336 26.6144 7.968C26.0384 7.6 25.3744 7.416 24.6224 7.416C23.8864 7.416 23.2304 7.6 22.6544 7.968C22.0944 8.336 21.6464 8.84 21.3104 9.48C20.9904 10.12 20.8304 10.848 20.8304 11.664C20.8304 12.496 20.9904 13.24 21.3104 13.896C21.6464 14.536 22.0944 15.04 22.6544 15.408C23.2304 15.776 23.8864 15.96 24.6224 15.96ZM34.3139 23.28V5.4H36.8099V8.28L36.4259 8.064C36.5219 7.584 36.7939 7.128 37.2419 6.696C37.6899 6.248 38.2339 5.888 38.8739 5.616C39.5299 5.328 40.2019 5.184 40.8899 5.184C42.0259 5.184 43.0339 5.464 43.9139 6.024C44.7939 6.584 45.4899 7.352 46.0019 8.328C46.5139 9.304 46.7699 10.424 46.7699 11.688C46.7699 12.936 46.5139 14.056 46.0019 15.048C45.5059 16.024 44.8179 16.8 43.9379 17.376C43.0579 17.936 42.0659 18.216 40.9619 18.216C40.2259 18.216 39.5139 18.072 38.8259 17.784C38.1379 17.48 37.5539 17.096 37.0739 16.632C36.5939 16.168 36.2979 15.688 36.1859 15.192L36.8099 14.856V23.28H34.3139ZM40.5539 15.936C41.2899 15.936 41.9459 15.752 42.5219 15.384C43.0979 15.016 43.5539 14.512 43.8899 13.872C44.2259 13.232 44.3939 12.504 44.3939 11.688C44.3939 10.872 44.2259 10.152 43.8899 9.528C43.5699 8.888 43.1219 8.384 42.5459 8.016C41.9699 7.648 41.3059 7.464 40.5539 7.464C39.8019 7.464 39.1379 7.648 38.5619 8.016C37.9859 8.368 37.5299 8.864 37.1939 9.504C36.8579 10.144 36.6899 10.872 36.6899 11.688C36.6899 12.504 36.8579 13.232 37.1939 13.872C37.5299 14.512 37.9859 15.016 38.5619 15.384C39.1379 15.752 39.8019 15.936 40.5539 15.936ZM55.3346 18.24C54.0386 18.24 52.8866 17.968 51.8786 17.424C50.8866 16.864 50.1026 16.104 49.5266 15.144C48.9666 14.184 48.6866 13.08 48.6866 11.832C48.6866 10.84 48.8466 9.936 49.1666 9.12C49.4866 8.304 49.9266 7.6 50.4866 7.008C51.0626 6.4 51.7426 5.936 52.5266 5.616C53.3266 5.28 54.1906 5.112 55.1186 5.112C55.9346 5.112 56.6946 5.272 57.3986 5.592C58.1026 5.896 58.7106 6.32 59.2226 6.864C59.7506 7.408 60.1506 8.056 60.4226 8.808C60.7106 9.544 60.8466 10.352 60.8306 11.232L60.8066 12.288H50.5106L49.9586 10.32H58.6706L58.3106 10.728V10.152C58.2626 9.624 58.0866 9.152 57.7826 8.736C57.4786 8.32 57.0946 7.992 56.6306 7.752C56.1666 7.512 55.6626 7.392 55.1186 7.392C54.2546 7.392 53.5266 7.56 52.9346 7.896C52.3426 8.216 51.8946 8.696 51.5906 9.336C51.2866 9.96 51.1346 10.736 51.1346 11.664C51.1346 12.544 51.3186 13.312 51.6866 13.968C52.0546 14.608 52.5746 15.104 53.2466 15.456C53.9186 15.808 54.6946 15.984 55.5746 15.984C56.1986 15.984 56.7746 15.88 57.3026 15.672C57.8466 15.464 58.4306 15.088 59.0546 14.544L60.3026 16.296C59.9186 16.68 59.4466 17.016 58.8866 17.304C58.3426 17.592 57.7586 17.824 57.1346 18C56.5266 18.16 55.9266 18.24 55.3346 18.24ZM68.7731 18.24C67.6211 18.24 66.5891 17.96 65.6771 17.4C64.7811 16.824 64.0691 16.048 63.5411 15.072C63.0131 14.08 62.7491 12.952 62.7491 11.688C62.7491 10.424 63.0051 9.304 63.5171 8.328C64.0451 7.336 64.7571 6.56 65.6531 6C66.5491 5.424 67.5651 5.136 68.7011 5.136C69.3251 5.136 69.9251 5.24 70.5011 5.448C71.0931 5.64 71.6211 5.912 72.0851 6.264C72.5491 6.6 72.9091 6.976 73.1651 7.392C73.4371 7.792 73.5731 8.2 73.5731 8.616L72.8531 8.664V0.24H75.3251V18H72.8531V15H73.3331C73.3331 15.384 73.2051 15.768 72.9491 16.152C72.6931 16.52 72.3491 16.864 71.9171 17.184C71.5011 17.504 71.0131 17.76 70.4531 17.952C69.9091 18.144 69.3491 18.24 68.7731 18.24ZM69.1091 16.104C69.8611 16.104 70.5251 15.912 71.1011 15.528C71.6771 15.144 72.1251 14.624 72.4451 13.968C72.7811 13.296 72.9491 12.536 72.9491 11.688C72.9491 10.84 72.7811 10.088 72.4451 9.432C72.1251 8.76 71.6771 8.232 71.1011 7.848C70.5251 7.464 69.8611 7.272 69.1091 7.272C68.3571 7.272 67.6931 7.464 67.1171 7.848C66.5411 8.232 66.0851 8.76 65.7491 9.432C65.4291 10.088 65.2691 10.84 65.2691 11.688C65.2691 12.536 65.4291 13.296 65.7491 13.968C66.0851 14.624 66.5411 15.144 67.1171 15.528C67.6931 15.912 68.3571 16.104 69.1091 16.104Z" fill="#8257E6"/>
</svg>
